<svg xmlns="http://www.w3.org/2000/svg" xmlns:xlink="http://www.w3.org/1999/xlink" width="150" zoomAndPan="magnify" viewBox="0 0 112.5 44.999999" height="60" preserveAspectRatio="xMidYMid meet" version="1.2"><defs/><g id="b19c86b348"><g style="fill:#ea580c;fill-opacity:1;"><g transform="translate(4.47585, 30.885992)"><path style="stroke:none" d="M 6.546875 -5.703125 L 4.3125 -5.703125 L 4.3125 0 L 1.375 0 L 1.375 -15.265625 L 6.484375 -15.265625 C 7.328125 -15.265625 8.09375 -15.164062 8.78125 -14.96875 C 9.46875 -14.769531 10.050781 -14.476562 10.53125 -14.09375 C 11.019531 -13.707031 11.394531 -13.226562 11.65625 -12.65625 C 11.925781 -12.082031 12.0625 -11.414062 12.0625 -10.65625 C 12.0625 -10.113281 11.992188 -9.625 11.859375 -9.1875 C 11.734375 -8.75 11.546875 -8.359375 11.296875 -8.015625 C 11.054688 -7.671875 10.765625 -7.367188 10.421875 -7.109375 C 10.085938 -6.847656 9.710938 -6.625 9.296875 -6.4375 L 12.578125 -0.140625 L 12.578125 0 L 9.421875 0 Z M 4.3125 -8.09375 L 6.5 -8.09375 C 7.332031 -8.09375 7.972656 -8.300781 8.421875 -8.71875 C 8.867188 -9.144531 9.09375 -9.726562 9.09375 -10.46875 C 9.09375 -11.226562 8.875 -11.816406 8.4375 -12.234375 C 8 -12.660156 7.347656 -12.875 6.484375 -12.875 L 4.3125 -12.875 Z M 4.3125 -8.09375 "/></g><g transform="translate(17.3582, 30.885992)"><path style="stroke:none" d="M 8.71875 -1.59375 C 8.332031 -1.03125 7.867188 -0.585938 7.328125 -0.265625 C 6.785156 0.0546875 6.191406 0.21875 5.546875 0.21875 C 4.960938 0.21875 4.425781 0.128906 3.9375 -0.046875 C 3.445312 -0.234375 3.023438 -0.523438 2.671875 -0.921875 C 2.328125 -1.316406 2.054688 -1.816406 1.859375 -2.421875 C 1.671875 -3.035156 1.578125 -3.773438 1.578125 -4.640625 L 1.578125 -11.34375 L 4.484375 -11.34375 L 4.484375 -4.609375 C 4.484375 -4.148438 4.515625 -3.765625 4.578125 -3.453125 C 4.648438 -3.140625 4.757812 -2.882812 4.90625 -2.6875 C 5.050781 -2.5 5.242188 -2.363281 5.484375 -2.28125 C 5.722656 -2.195312 6.015625 -2.15625 6.359375 -2.15625 C 6.929688 -2.15625 7.398438 -2.265625 7.765625 -2.484375 C 8.128906 -2.703125 8.40625 -3.003906 8.59375 -3.390625 L 8.59375 -11.34375 L 11.515625 -11.34375 L 11.515625 0 L 8.875 0 Z M 8.71875 -1.59375 "/></g><g transform="translate(30.240551, 30.885992)"><path style="stroke:none" d="M 3.296875 -11.34375 L 3.375 -9.96875 C 3.59375 -10.457031 3.890625 -10.84375 4.265625 -11.125 C 4.648438 -11.40625 5.113281 -11.546875 5.65625 -11.546875 C 6.570312 -11.546875 7.171875 -11.144531 7.453125 -10.34375 C 7.671875 -10.71875 7.953125 -11.007812 8.296875 -11.21875 C 8.648438 -11.4375 9.070312 -11.546875 9.5625 -11.546875 C 9.90625 -11.546875 10.222656 -11.484375 10.515625 -11.359375 C 10.816406 -11.234375 11.078125 -11.03125 11.296875 -10.75 C 11.515625 -10.476562 11.6875 -10.125 11.8125 -9.6875 C 11.9375 -9.25 12 -8.71875 12 -8.09375 L 12 0 L 9.34375 0 L 9.34375 -8.109375 C 9.34375 -8.316406 9.316406 -8.488281 9.265625 -8.625 C 9.222656 -8.769531 9.160156 -8.882812 9.078125 -8.96875 C 9.003906 -9.050781 8.914062 -9.109375 8.8125 -9.140625 C 8.71875 -9.171875 8.617188 -9.1875 8.515625 -9.1875 C 8.304688 -9.1875 8.128906 -9.140625 7.984375 -9.046875 C 7.847656 -8.953125 7.742188 -8.820312 7.671875 -8.65625 L 7.671875 0 L 5.109375 0 L 5.109375 -8.109375 C 5.109375 -8.328125 5.085938 -8.503906 5.046875 -8.640625 C 5.003906 -8.785156 4.945312 -8.894531 4.875 -8.96875 C 4.800781 -9.050781 4.710938 -9.109375 4.609375 -9.140625 C 4.515625 -9.171875 4.410156 -9.1875 4.296875 -9.1875 C 4.078125 -9.1875 3.894531 -9.125 3.75 -9 C 3.613281 -8.875 3.507812 -8.703125 3.4375 -8.484375 L 3.4375 0 L 0.78125 0 L 0.78125 -11.34375 Z M 3.296875 -11.34375 "/></g><g transform="translate(43.122901, 30.885992)"><path style="stroke:none" d="M 2.25 -11.34375 L 8.421875 -11.34375 L 8.421875 -2.375 L 11.5 -2.375 L 11.5 0 L 2.25 0 L 2.25 -2.375 L 5.484375 -2.375 L 5.484375 -8.96875 L 2.25 -8.96875 Z M 5.265625 -14.25 C 5.265625 -14.46875 5.304688 -14.671875 5.390625 -14.859375 C 5.472656 -15.054688 5.585938 -15.222656 5.734375 -15.359375 C 5.878906 -15.492188 6.054688 -15.597656 6.265625 -15.671875 C 6.472656 -15.753906 6.703125 -15.796875 6.953125 -15.796875 C 7.460938 -15.796875 7.867188 -15.648438 8.171875 -15.359375 C 8.484375 -15.066406 8.640625 -14.695312 8.640625 -14.25 C 8.640625 -13.789062 8.484375 -13.414062 8.171875 -13.125 C 7.867188 -12.832031 7.460938 -12.6875 6.953125 -12.6875 C 6.703125 -12.6875 6.472656 -12.722656 6.265625 -12.796875 C 6.054688 -12.878906 5.878906 -12.988281 5.734375 -13.125 C 5.585938 -13.257812 5.472656 -13.421875 5.390625 -13.609375 C 5.304688 -13.804688 5.265625 -14.019531 5.265625 -14.25 Z M 5.265625 -14.25 "/></g></g><g style="fill:#000000;fill-opacity:1;"><g transform="translate(56.008532, 30.885992)"><path style="stroke:none" d="M 11.96875 -4.78125 C 11.914062 -4.007812 11.75 -3.316406 11.46875 -2.703125 C 11.1875 -2.085938 10.804688 -1.5625 10.328125 -1.125 C 9.859375 -0.695312 9.296875 -0.363281 8.640625 -0.125 C 7.984375 0.101562 7.253906 0.21875 6.453125 0.21875 C 5.554688 0.21875 4.757812 0.0507812 4.0625 -0.28125 C 3.363281 -0.613281 2.773438 -1.078125 2.296875 -1.671875 C 1.816406 -2.265625 1.453125 -2.976562 1.203125 -3.8125 C 0.953125 -4.65625 0.828125 -5.582031 0.828125 -6.59375 L 0.828125 -8.640625 C 0.828125 -9.660156 0.957031 -10.585938 1.21875 -11.421875 C 1.488281 -12.265625 1.867188 -12.984375 2.359375 -13.578125 C 2.847656 -14.179688 3.4375 -14.648438 4.125 -14.984375 C 4.820312 -15.316406 5.609375 -15.484375 6.484375 -15.484375 C 7.316406 -15.484375 8.0625 -15.363281 8.71875 -15.125 C 9.375 -14.882812 9.929688 -14.546875 10.390625 -14.109375 C 10.847656 -13.671875 11.207031 -13.132812 11.46875 -12.5 C 11.738281 -11.863281 11.910156 -11.144531 11.984375 -10.34375 L 9.046875 -10.34375 C 9.015625 -10.800781 8.945312 -11.203125 8.84375 -11.546875 C 8.738281 -11.890625 8.582031 -12.171875 8.375 -12.390625 C 8.164062 -12.617188 7.90625 -12.789062 7.59375 -12.90625 C 7.28125 -13.019531 6.910156 -13.078125 6.484375 -13.078125 C 6.023438 -13.078125 5.628906 -12.976562 5.296875 -12.78125 C 4.960938 -12.59375 4.679688 -12.304688 4.453125 -11.921875 C 4.234375 -11.546875 4.070312 -11.082031 3.96875 -10.53125 C 3.863281 -9.988281 3.8125 -9.367188 3.8125 -8.671875 L 3.8125 -6.59375 C 3.8125 -5.09375 4.019531 -3.984375 4.4375 -3.265625 C 4.863281 -2.546875 5.535156 -2.1875 6.453125 -2.1875 C 7.222656 -2.1875 7.832031 -2.390625 8.28125 -2.796875 C 8.726562 -3.203125 8.976562 -3.863281 9.03125 -4.78125 Z M 11.96875 -4.78125 "/></g><g transform="translate(68.890883, 30.885992)"><path style="stroke:none" d="M 8.5625 0 C 8.488281 -0.132812 8.425781 -0.289062 8.375 -0.46875 C 8.332031 -0.65625 8.296875 -0.851562 8.265625 -1.0625 C 8.097656 -0.882812 7.910156 -0.71875 7.703125 -0.5625 C 7.492188 -0.40625 7.257812 -0.269531 7 -0.15625 C 6.75 -0.0390625 6.46875 0.046875 6.15625 0.109375 C 5.851562 0.171875 5.523438 0.203125 5.171875 0.203125 C 4.585938 0.203125 4.050781 0.117188 3.5625 -0.046875 C 3.082031 -0.210938 2.664062 -0.441406 2.3125 -0.734375 C 1.96875 -1.035156 1.695312 -1.394531 1.5 -1.8125 C 1.300781 -2.226562 1.203125 -2.679688 1.203125 -3.171875 C 1.203125 -4.367188 1.644531 -5.289062 2.53125 -5.9375 C 3.425781 -6.59375 4.757812 -6.921875 6.53125 -6.921875 L 8.15625 -6.921875 L 8.15625 -7.59375 C 8.15625 -8.144531 7.976562 -8.578125 7.625 -8.890625 C 7.269531 -9.210938 6.753906 -9.375 6.078125 -9.375 C 5.484375 -9.375 5.050781 -9.242188 4.78125 -8.984375 C 4.507812 -8.734375 4.375 -8.394531 4.375 -7.96875 L 1.453125 -7.96875 C 1.453125 -8.445312 1.554688 -8.898438 1.765625 -9.328125 C 1.984375 -9.765625 2.296875 -10.144531 2.703125 -10.46875 C 3.117188 -10.800781 3.617188 -11.0625 4.203125 -11.25 C 4.796875 -11.445312 5.472656 -11.546875 6.234375 -11.546875 C 6.921875 -11.546875 7.554688 -11.460938 8.140625 -11.296875 C 8.734375 -11.128906 9.25 -10.878906 9.6875 -10.546875 C 10.125 -10.222656 10.460938 -9.8125 10.703125 -9.3125 C 10.941406 -8.8125 11.0625 -8.234375 11.0625 -7.578125 L 11.0625 -2.71875 C 11.0625 -2.101562 11.097656 -1.597656 11.171875 -1.203125 C 11.253906 -0.804688 11.367188 -0.460938 11.515625 -0.171875 L 11.515625 0 Z M 5.78125 -2.046875 C 6.082031 -2.046875 6.359375 -2.078125 6.609375 -2.140625 C 6.859375 -2.210938 7.082031 -2.304688 7.28125 -2.421875 C 7.488281 -2.535156 7.664062 -2.660156 7.8125 -2.796875 C 7.957031 -2.941406 8.070312 -3.085938 8.15625 -3.234375 L 8.15625 -5.1875 L 6.671875 -5.1875 C 6.210938 -5.1875 5.820312 -5.140625 5.5 -5.046875 C 5.175781 -4.960938 4.910156 -4.84375 4.703125 -4.6875 C 4.503906 -4.53125 4.359375 -4.34375 4.265625 -4.125 C 4.171875 -3.90625 4.125 -3.664062 4.125 -3.40625 C 4.125 -3.007812 4.257812 -2.679688 4.53125 -2.421875 C 4.8125 -2.171875 5.226562 -2.046875 5.78125 -2.046875 Z M 5.78125 -2.046875 "/></g><g transform="translate(81.773233, 30.885992)"><path style="stroke:none" d="M 9.625 -11.546875 C 10.0625 -11.546875 10.46875 -11.515625 10.84375 -11.453125 C 11.21875 -11.398438 11.519531 -11.335938 11.75 -11.265625 L 11.328125 -8.359375 C 10.941406 -8.453125 10.546875 -8.519531 10.140625 -8.5625 C 9.742188 -8.613281 9.363281 -8.640625 9 -8.640625 C 8.175781 -8.640625 7.519531 -8.476562 7.03125 -8.15625 C 6.539062 -7.84375 6.171875 -7.394531 5.921875 -6.8125 L 5.921875 0 L 3.015625 0 L 3.015625 -11.34375 L 5.71875 -11.34375 L 5.859375 -9.484375 C 6.316406 -10.128906 6.867188 -10.632812 7.515625 -11 C 8.160156 -11.363281 8.863281 -11.546875 9.625 -11.546875 Z M 9.625 -11.546875 "/></g><g transform="translate(94.655584, 30.885992)"><path style="stroke:none" d="M 6.828125 -14.125 L 6.828125 -11.34375 L 11.0625 -11.34375 L 11.0625 -9.1875 L 6.828125 -9.1875 L 6.828125 -4.3125 C 6.828125 -3.90625 6.875 -3.5625 6.96875 -3.28125 C 7.0625 -3.007812 7.191406 -2.789062 7.359375 -2.625 C 7.535156 -2.457031 7.75 -2.335938 8 -2.265625 C 8.25 -2.203125 8.53125 -2.171875 8.84375 -2.171875 C 9.0625 -2.171875 9.285156 -2.179688 9.515625 -2.203125 C 9.753906 -2.222656 9.976562 -2.25 10.1875 -2.28125 C 10.40625 -2.3125 10.601562 -2.34375 10.78125 -2.375 C 10.96875 -2.414062 11.128906 -2.453125 11.265625 -2.484375 L 11.546875 -0.484375 C 11.347656 -0.359375 11.113281 -0.253906 10.84375 -0.171875 C 10.570312 -0.0859375 10.28125 -0.0195312 9.96875 0.03125 C 9.664062 0.09375 9.347656 0.140625 9.015625 0.171875 C 8.679688 0.203125 8.351562 0.21875 8.03125 0.21875 C 7.40625 0.21875 6.835938 0.140625 6.328125 -0.015625 C 5.828125 -0.179688 5.394531 -0.4375 5.03125 -0.78125 C 4.675781 -1.132812 4.398438 -1.578125 4.203125 -2.109375 C 4.003906 -2.648438 3.90625 -3.289062 3.90625 -4.03125 L 3.90625 -9.1875 L 1.328125 -9.1875 L 1.328125 -11.34375 L 3.90625 -11.34375 L 3.90625 -14.125 Z M 6.828125 -14.125 "/></g></g></g></svg>